<svg id="Calque_1" data-name="Calque 1" xmlns="http://www.w3.org/2000/svg" xmlns:xlink="http://www.w3.org/1999/xlink" viewBox="0 0 580.34 194.55"><defs><style>.cls-1{fill:#fff;}.cls-2{fill:#d8d5ec;}.cls-3{fill:#f0f0f9;}.cls-4{fill:url(#Dégradé_sans_nom_10);}.cls-11,.cls-5{opacity:0.7;}.cls-5{fill:url(#Dégradé_sans_nom_10-2);}.cls-6{fill:#d1e0e9;}.cls-7{fill:#fab43f;}.cls-8{fill:#ef7b28;}.cls-9{fill:#f07e29;}.cls-10{fill:#fab540;}.cls-11{fill:url(#Dégradé_sans_nom_11);}.cls-12{opacity:0.4;fill:url(#Dégradé_sans_nom_11-2);}.cls-13{fill:url(#Dégradé_sans_nom_10-3);}</style><linearGradient id="Dégradé_sans_nom_10" x1="160.85" y1="102.18" x2="185.82" y2="102.18" gradientUnits="userSpaceOnUse"><stop offset="0" stop-color="#9cd4d3"/><stop offset="1" stop-color="#9cd4d3"/></linearGradient><linearGradient id="Dégradé_sans_nom_10-2" x1="224.74" y1="103.75" x2="250.31" y2="103.75" xlink:href="#Dégradé_sans_nom_10"/><linearGradient id="Dégradé_sans_nom_11" x1="206.18" y1="57.36" x2="222.61" y2="57.36" gradientUnits="userSpaceOnUse"><stop offset="0" stop-color="#282e64"/><stop offset="1" stop-color="#282e64"/></linearGradient><linearGradient id="Dégradé_sans_nom_11-2" x1="190.56" y1="57.42" x2="206.8" y2="57.42" xlink:href="#Dégradé_sans_nom_11"/><linearGradient id="Dégradé_sans_nom_10-3" x1="196.87" y1="57.28" x2="216.14" y2="57.28" xlink:href="#Dégradé_sans_nom_10"/></defs><title>Logo</title><path class="cls-1" d="M8,101.65c1.87,14.74,12.25,20.87,24.75,20.87,14.49,0,23.87-7.5,23.87-20.5,0-11.75-5.88-18-23.75-23.25C16.12,73.9,8.62,68.4,8.62,56.15c0-13.5,10-21,24-21,16.12,0,23.75,9.5,25,21.25h-2.5c-1.75-13-10.87-18.87-22.62-18.87-13,0-21.25,7-21.25,18.5,0,11,6.62,15.87,22.62,20.49,20.5,5.88,25.37,13.75,25.37,25.38,0,14.24-9.75,23-26.62,23-17.12,0-25.5-9.5-27.25-23.24Z"/><path class="cls-1" d="M148.35,80.9c0-17.75,0-34.37.5-42.62h-.25c-3.25,9.5-22.87,58.62-33.49,85.36H112C101.23,94.9,83.11,49.15,79.36,38.53h-.12c.37,7,.37,31,.37,45.87v39.24H77.24V36.4H81c13.49,34.87,29.87,76.87,32.62,84.62h.12c2.38-6.88,21.12-53.37,33.37-84.62h3.75v87.24h-2.5Z"/><path class="cls-1" d="M263.45,79.9v43.74H261V36.4h26.87c12.88,0,24.12,6.38,24.12,21.75,0,10-4.87,18.5-17.37,20.62,11,2.38,15.87,9.25,15.87,22.25v5.37c0,8.13.5,12.38,1.88,17.25h-2.5c-1.5-4.87-1.88-10.75-1.88-16.5v-5.87c0-15.62-7.49-21.37-22.24-21.37Zm0-2.25h22.12c11.88,0,23.75-3.63,23.75-19.62,0-12.38-8.12-19.38-21.62-19.38H263.45Z"/><path class="cls-1" d="M350.56,38.65H322.19V36.4h59.49v2.25H353.06v85h-2.5Z"/><path class="cls-1" d="M398.05,36.4v87.24h-2.5V36.4Z"/><path class="cls-1" d="M422.17,123.64V36.4h3.75C473,110.76,476.16,116,479.41,121h.13c-.38-3.38-.38-26.5-.38-40.62v-44h2.5v87.24H478c-47.62-75.48-50.62-80.49-53.62-85.24h-.13c.63,11.63.38,24.38.38,40.5v44.74Z"/><path class="cls-1" d="M565.64,123.64h-2.25c-.25-2.75-.25-7.62-.25-19.5-4.5,14.75-13.74,20.75-28.74,20.75-23.5,0-33.87-19.62-33.87-44.37,0-23.49,11.12-45.37,35.49-45.37,15.88,0,27.5,7.63,30.37,24h-2.5c-3-14.25-12.74-21.62-28.12-21.62-21.87,0-32.62,19.62-32.62,42.87s9.63,42.12,31.37,42.12c20,0,28.62-13.38,28.62-33.25V82H534.4V79.77h31.24Z"/><path class="cls-1" d="M434.59,139.6H449c7.46,0,12.11,3.82,12.11,10.22,0,5.49-3.39,7.84-5.92,8.65a10.29,10.29,0,0,1,7.24,10.3c0,7.91-5.76,12.24-13.94,12.24H434.59Zm13.26,17.08c5.9,0,8.2-2.38,8.2-6.48,0-3.8-2.47-6.49-7.78-6.49h-8.62v13Zm-8.2,20.24h8.46c5.22,0,9.14-2.49,9.14-8.08,0-5-3.17-8-9.65-8h-8Z"/><path class="cls-1" d="M469,181V137.33h5V181Z"/><path class="cls-1" d="M507.44,165.31c0,8.8-3.85,16.22-13.58,16.22-9.45,0-13.19-7.73-13.19-16.08,0-8,4.38-15.45,13.57-15.45C502.85,150,507.44,156.54,507.44,165.31Zm-21.65.09c0,7,2.86,12,8.37,12,5.69,0,8.14-4.86,8.14-12,0-6.6-2.75-11.18-8.3-11.18C488.61,154.15,485.79,158.78,485.79,165.4Z"/><path class="cls-1" d="M537.19,171.31c-1.23,5.94-5,10.27-12.22,10.27-8.56,0-12.86-5.66-12.86-15.83,0-8.76,4.42-15.75,13.16-15.75,8.1,0,11.45,5.58,11.88,10.61h-5c-.59-3.45-2.5-6.53-7-6.53-5.53,0-7.94,4.84-7.94,11.58,0,7.79,2.81,11.86,7.88,11.86,4.21,0,6-2.6,7.08-6.21Z"/><path class="cls-1" d="M548.32,164.8c2.8-3.11,8.91-9.87,12.55-14.2h5.79c-3.36,3.83-7.07,7.67-10.62,11.59,3.69,5.81,8.08,12.93,11.81,18.82h-5.78c-2.44-4-6.67-11.06-9.37-15.46-.81.89-3.53,3.58-4.38,4.43v11h-5V137.33h5Z"/><path class="cls-2" d="M207.67,11.29a9.54,9.54,0,0,1,5.74,3.49c1.63,1.81,3.38,3.54,4.85,5.48a136.08,136.08,0,0,1,8.3,11.6,81.69,81.69,0,0,1,6.57,13.21c1.6,4.29,2.37,8.89,3.36,13.39,1.41,6.44.84,13,.89,19.52a20.76,20.76,0,0,1-.55,3.37c-.67,3.84-1.15,7.73-2.06,11.51-.76,3.14-2,6.14-3.07,9.21-3.49,0-7,0-10.49-.09-5.21-.13-10.42-.33-15.64-.51l-.31-.09q.31-14,.62-27.95H206l.15,0c7.38-.19,13.1-4.2,15.49-11a16,16,0,0,0-14.91-21.14c.1-2.33.25-4.67.29-7,.13-6.28.2-12.57.33-18.85C207.41,14.06,207.57,12.67,207.67,11.29Z"/><path class="cls-3" d="M207.67,11.29c-.1,1.38-.26,2.77-.29,4.16-.13,6.28-.2,12.57-.33,18.85,0,2.34-.19,4.68-.29,7l0,.09c-.84.08-1.69.12-2.52.23a15.46,15.46,0,0,0-11.59,7.76A14.59,14.59,0,0,0,190.87,60c1.29,6.51,5,10.9,11.58,12.6,1.13.29,2.29.53,3.43.79q-.3,14-.62,27.95l-10.89-.23-15.23-.29-1.08-3.53a98.48,98.48,0,0,1-3.14-17.54c0-3.1-.24-6.23.05-9.31.5-5.17,1.28-10.32,2-15.46.85-5.7,3.26-10.9,5.76-16a73.86,73.86,0,0,1,7.11-11.21c2.89-3.84,6.16-7.41,9.4-11a31.75,31.75,0,0,1,4.95-4.31A13.19,13.19,0,0,1,207.67,11.29Z"/><path class="cls-4" d="M174.92,79.79a98.48,98.48,0,0,0,3.14,17.54l1.08,3.53c.08.29.14.58.24.85a70.41,70.41,0,0,0,6.44,13.13l-9.44,6.5c-.9.63-1.78,1.29-2.68,1.92-3.88,2.73-8.36,1-9.25-3.6-1.12-5.79-2.07-11.62-3.06-17.44a20.22,20.22,0,0,1-.53-4.42,8.49,8.49,0,0,1,2.7-5.3C167.44,88.36,171.14,84,174.92,79.79Z"/><path class="cls-5" d="M231.7,102.07C232.75,99,234,96,234.77,92.86c.91-3.78,1.39-7.67,2.06-11.51,2.56,3,5.14,6.08,7.67,9.14,1.31,1.57,2.53,3.21,3.82,4.79a9,9,0,0,1,1.64,8.31c-1.41,5.93-2.73,11.88-4.16,17.8a5.84,5.84,0,0,1-9.45,3.45c-3.55-2.57-7-5.25-10.5-7.91a10.28,10.28,0,0,1-1.11-1.17c1.16-2,2.42-3.87,3.43-5.9C229.45,107.31,230.54,104.67,231.7,102.07Z"/><path class="cls-6" d="M185.82,114.84a70.41,70.41,0,0,1-6.44-13.13c-.1-.27-.16-.56-.24-.85l15.23.29,10.89.23.31.09-.3,17.31c-4.71-.09-9.42-.12-14.13-.31-2-.08-3.88-.8-4.74-3C186.3,115.25,186,115.06,185.82,114.84Z"/><path class="cls-6" d="M205.27,118.78l.3-17.31c5.22.18,10.43.38,15.64.51,3.5.09,7,.06,10.49.09-1.16,2.6-2.25,5.24-3.53,7.79-1,2-2.27,3.94-3.43,5.9-1.91,2.76-4.62,3.57-7.86,3.39C213,118.94,209.14,118.9,205.27,118.78Z"/><path class="cls-7" d="M194.16,134.08c0,3.43,0,6.87,0,10.3a3,3,0,0,1-3.15,3.05,3,3,0,0,1-3.15-3.1q.08-7.49.31-15a3.15,3.15,0,0,1,6.29.21c0,1.5,0,3,0,4.5Z"/><path class="cls-8" d="M215.16,140.47c0-3.48,0-7,0-10.44a3.14,3.14,0,0,1,6.27-.08c0,3.88-.09,7.77-.2,11.66a25.3,25.3,0,0,1-.39,4.27,2.6,2.6,0,0,1-2.87,2.21q-3-.42-3.13-3v-4.65Z"/><path class="cls-9" d="M204.69,126.73c2.17.14,3.3,1.27,3.27,3.4q-.12,11.16-.32,22.33c0,1.89-.16,3.77-.28,5.66-.14,2.15-1.53,3.45-3.38,3.22.13-4.39.3-8.78.38-13.17C204.5,141,204.58,133.87,204.69,126.73Z"/><path class="cls-10" d="M204.69,126.73c-.11,7.14-.19,14.29-.33,21.44-.08,4.39-.25,8.78-.38,13.17-2.16-.48-2.95-1.42-2.92-3.62q.15-11.43.36-22.86c0-1.69.15-3.37.23-5.06S202.68,127.15,204.69,126.73Z"/><path class="cls-11" d="M206.76,41.31a16,16,0,0,1,14.91,21.14c-2.39,6.76-8.11,10.77-15.49,11,.09-2.18.19-4.35.29-6.53,1.67-.41,3.57-.45,5-1.3A9.63,9.63,0,0,0,213.79,51a8.78,8.78,0,0,0-7-3.09l0-6.49Z"/><path class="cls-12" d="M206.47,66.88c-.1,2.18-.2,4.35-.29,6.53l-.15,0h-.15c-1.14-.26-2.3-.5-3.43-.79-6.58-1.7-10.29-6.09-11.58-12.6a14.59,14.59,0,0,1,1.82-10.65,15.46,15.46,0,0,1,11.59-7.76c.83-.11,1.68-.15,2.52-.23,0,2.17,0,4.33,0,6.49a4.65,4.65,0,0,0-1.45-.22,10,10,0,0,0-8.45,10.22C197.09,62.41,201.42,67.31,206.47,66.88Z"/><path class="cls-13" d="M206.47,66.88c-5.05.43-9.38-4.47-9.59-9a10,10,0,0,1,8.45-10.22,4.65,4.65,0,0,1,1.45.22,8.78,8.78,0,0,1,7,3.09,9.63,9.63,0,0,1-2.35,14.6C210,66.43,208.14,66.47,206.47,66.88Z"/></svg>