<svg id="Calque_1" data-name="Calque 1" xmlns="http://www.w3.org/2000/svg" xmlns:xlink="http://www.w3.org/1999/xlink" viewBox="0 0 580.34 194.55"><defs><style>.cls-1{fill:#282f64;}.cls-2{fill:#d8d5ec;}.cls-3{fill:#f0f0f9;}.cls-4{fill:url(#Dégradé_sans_nom_10);}.cls-11,.cls-5{opacity:0.7;}.cls-5{fill:url(#Dégradé_sans_nom_10-2);}.cls-6{fill:#d1e0e9;}.cls-7{fill:#fab43f;}.cls-8{fill:#ef7b28;}.cls-9{fill:#f07e29;}.cls-10{fill:#fab540;}.cls-11{fill:url(#Dégradé_sans_nom_11);}.cls-12{opacity:0.4;fill:url(#Dégradé_sans_nom_11-2);}.cls-13{fill:url(#Dégradé_sans_nom_10-3);}</style><linearGradient id="Dégradé_sans_nom_10" x1="161.81" y1="103.31" x2="186.78" y2="103.31" gradientUnits="userSpaceOnUse"><stop offset="0" stop-color="#9cd4d3"/><stop offset="1" stop-color="#9cd4d3"/></linearGradient><linearGradient id="Dégradé_sans_nom_10-2" x1="225.7" y1="104.88" x2="251.27" y2="104.88" xlink:href="#Dégradé_sans_nom_10"/><linearGradient id="Dégradé_sans_nom_11" x1="207.14" y1="58.49" x2="223.57" y2="58.49" gradientUnits="userSpaceOnUse"><stop offset="0" stop-color="#282e64"/><stop offset="1" stop-color="#282e64"/></linearGradient><linearGradient id="Dégradé_sans_nom_11-2" x1="191.52" y1="58.55" x2="207.76" y2="58.55" xlink:href="#Dégradé_sans_nom_11"/><linearGradient id="Dégradé_sans_nom_10-3" x1="197.83" y1="58.41" x2="217.1" y2="58.41" xlink:href="#Dégradé_sans_nom_10"/></defs><title>testLogo</title><path class="cls-1" d="M9,102.78c1.87,14.74,12.25,20.87,24.75,20.87,14.49,0,23.87-7.5,23.87-20.5,0-11.75-5.88-18-23.75-23.25C17.08,75,9.58,69.53,9.58,57.28c0-13.5,10-21,24-21,16.12,0,23.75,9.5,25,21.25h-2.5c-1.75-13-10.88-18.87-22.62-18.87-13,0-21.25,7-21.25,18.49,0,11,6.62,15.88,22.62,20.5C55.33,83.53,60.2,91.4,60.2,103c0,14.24-9.75,23-26.62,23-17.12,0-25.5-9.5-27.25-23.24Z"/><path class="cls-1" d="M149.31,82c0-17.75,0-34.37.5-42.62h-.25c-3.25,9.5-22.87,58.62-33.49,85.36h-3.13C102.19,96,84.07,50.28,80.32,39.66h-.13c.38,7,.38,31,.38,45.87v39.24H78.2V37.53h3.74c13.5,34.87,29.88,76.87,32.63,84.62h.12c2.38-6.88,21.12-53.37,33.37-84.62h3.75v87.24h-2.5Z"/><path class="cls-1" d="M264.41,81v43.74h-2.5V37.53h26.87c12.87,0,24.12,6.38,24.12,21.75,0,10-4.87,18.5-17.37,20.62,11,2.38,15.87,9.25,15.87,22.25v5.37c0,8.13.5,12.38,1.88,17.25h-2.5c-1.5-4.87-1.88-10.75-1.88-16.5V102.4c0-15.62-7.5-21.37-22.24-21.37Zm0-2.25h22.12c11.87,0,23.75-3.63,23.75-19.63,0-12.37-8.13-19.37-21.62-19.37H264.41Z"/><path class="cls-1" d="M351.52,39.78H323.15V37.53h59.49v2.25H354v85h-2.5Z"/><path class="cls-1" d="M399,37.53v87.24h-2.5V37.53Z"/><path class="cls-1" d="M423.13,124.77V37.53h3.75c47.11,74.36,50.24,79.62,53.49,84.62h.12c-.37-3.38-.37-26.5-.37-40.62v-44h2.5v87.24H479c-47.61-75.48-50.61-80.49-53.61-85.24h-.13c.63,11.63.38,24.37.38,40.5v44.74Z"/><path class="cls-1" d="M566.6,124.77h-2.25c-.25-2.75-.25-7.62-.25-19.5C559.6,120,550.35,126,535.36,126c-23.5,0-33.87-19.62-33.87-44.37,0-23.5,11.12-45.37,35.49-45.37,15.87,0,27.5,7.63,30.37,24h-2.5c-3-14.25-12.75-21.62-28.12-21.62-21.87,0-32.62,19.62-32.62,42.87s9.62,42.12,31.37,42.12c20,0,28.62-13.38,28.62-33.25V83.15H535.36V80.9H566.6Z"/><path class="cls-1" d="M435.55,140.73H450c7.46,0,12.11,3.82,12.11,10.22,0,5.49-3.39,7.84-5.92,8.65a10.3,10.3,0,0,1,7.24,10.3c0,7.91-5.76,12.24-13.94,12.24H435.55Zm13.26,17.08c5.9,0,8.2-2.38,8.2-6.48,0-3.8-2.47-6.49-7.78-6.49h-8.62v13Zm-8.2,20.24h8.45c5.23,0,9.15-2.49,9.15-8.08,0-5-3.17-8-9.65-8h-7.95Z"/><path class="cls-1" d="M470,182.14V138.46h5v43.68Z"/><path class="cls-1" d="M508.4,166.44c0,8.8-3.86,16.22-13.58,16.22-9.45,0-13.19-7.73-13.19-16.08,0-8,4.38-15.45,13.57-15.45C503.81,151.13,508.4,157.67,508.4,166.44Zm-21.65.09c0,7,2.86,12,8.37,12,5.69,0,8.14-4.86,8.14-12,0-6.6-2.75-11.18-8.31-11.18C489.57,155.28,486.75,159.91,486.75,166.53Z"/><path class="cls-1" d="M538.15,172.44c-1.23,5.94-5,10.27-12.23,10.27-8.55,0-12.85-5.66-12.85-15.83,0-8.76,4.42-15.75,13.16-15.75,8.1,0,11.45,5.58,11.88,10.61h-5c-.59-3.45-2.5-6.53-7-6.53-5.53,0-7.94,4.84-7.94,11.58,0,7.79,2.81,11.86,7.87,11.86,4.21,0,6-2.6,7.09-6.21Z"/><path class="cls-1" d="M549.28,165.93c2.8-3.11,8.91-9.87,12.55-14.2h5.79c-3.36,3.83-7.07,7.67-10.62,11.59,3.69,5.81,8.08,12.93,11.81,18.82H563c-2.44-4-6.67-11.06-9.37-15.46-.81.89-3.53,3.58-4.38,4.43v11h-5V138.46h5Z"/><path class="cls-2" d="M208.63,12.42a9.54,9.54,0,0,1,5.74,3.49c1.63,1.81,3.38,3.54,4.85,5.48a136.08,136.08,0,0,1,8.3,11.6,81.69,81.69,0,0,1,6.57,13.21c1.6,4.29,2.37,8.89,3.35,13.39,1.42,6.44.85,13,.9,19.52a20.76,20.76,0,0,1-.55,3.37c-.67,3.84-1.15,7.73-2.06,11.51-.76,3.14-2,6.14-3.07,9.21-3.49,0-7,0-10.49-.09-5.21-.13-10.42-.33-15.64-.51l-.31-.09q.32-14,.62-27.95H207l.15,0c7.38-.19,13.1-4.2,15.49-11a16,16,0,0,0-14.91-21.14c.1-2.33.25-4.67.29-7,.13-6.28.2-12.57.33-18.85C208.37,15.19,208.53,13.8,208.63,12.42Z"/><path class="cls-3" d="M208.63,12.42c-.1,1.38-.26,2.77-.29,4.16-.13,6.28-.2,12.57-.33,18.85,0,2.34-.19,4.68-.29,7l0,.09c-.84.08-1.69.12-2.52.23a15.46,15.46,0,0,0-11.59,7.76,14.59,14.59,0,0,0-1.82,10.65c1.28,6.51,5,10.9,11.58,12.6,1.13.29,2.29.53,3.43.79q-.32,14-.62,28l-10.89-.23L180.1,102c-.36-1.17-.73-2.35-1.08-3.53a97.59,97.59,0,0,1-3.14-17.54c0-3.1-.24-6.23.05-9.31.5-5.17,1.28-10.32,2-15.46.85-5.7,3.25-10.9,5.76-16A73.86,73.86,0,0,1,190.84,29c2.89-3.84,6.16-7.41,9.4-11a31.75,31.75,0,0,1,4.95-4.31A13.19,13.19,0,0,1,208.63,12.42Z"/><path class="cls-4" d="M175.88,80.92A97.59,97.59,0,0,0,179,98.46c.35,1.18.72,2.36,1.08,3.53a7.59,7.59,0,0,0,.24.85A70.41,70.41,0,0,0,186.78,116l-9.44,6.5c-.9.63-1.78,1.29-2.68,1.92-3.88,2.73-8.36,1-9.25-3.6-1.12-5.79-2.07-11.62-3.06-17.44a20.22,20.22,0,0,1-.53-4.42,8.49,8.49,0,0,1,2.7-5.3C168.4,89.49,172.1,85.17,175.88,80.92Z"/><path class="cls-5" d="M232.66,103.2c1-3.07,2.31-6.07,3.07-9.21.91-3.78,1.39-7.67,2.06-11.51,2.56,3,5.13,6.08,7.67,9.14,1.31,1.57,2.53,3.21,3.82,4.79a9,9,0,0,1,1.64,8.31c-1.41,5.93-2.74,11.88-4.16,17.8a5.84,5.84,0,0,1-9.45,3.45c-3.55-2.57-7-5.25-10.5-7.91a10.28,10.28,0,0,1-1.11-1.17c1.16-2,2.42-3.87,3.43-5.9C230.41,108.44,231.5,105.8,232.66,103.2Z"/><path class="cls-6" d="M186.78,116a70.41,70.41,0,0,1-6.44-13.13,7.59,7.59,0,0,1-.24-.85l15.23.29,10.89.23.31.09-.3,17.31c-4.71-.09-9.42-.12-14.13-.31-2-.08-3.88-.8-4.74-3A2.79,2.79,0,0,0,186.78,116Z"/><path class="cls-6" d="M206.23,119.91l.3-17.31c5.22.18,10.43.38,15.64.51,3.5.09,7,.06,10.49.09-1.16,2.6-2.25,5.24-3.53,7.79-1,2-2.27,3.94-3.43,5.9-1.91,2.76-4.62,3.57-7.86,3.39C214,120.07,210.1,120,206.23,119.91Z"/><path class="cls-7" d="M195.12,135.21c0,3.43,0,6.87,0,10.3a3,3,0,0,1-3.16,3.05,3,3,0,0,1-3.14-3.1q.08-7.49.31-15a3.15,3.15,0,0,1,6.29.21c0,1.5,0,3,0,4.5Z"/><path class="cls-8" d="M216.12,141.6c0-3.48,0-7,0-10.44a3.14,3.14,0,0,1,6.27-.08c0,3.88-.09,7.77-.2,11.66a25.3,25.3,0,0,1-.39,4.27,2.6,2.6,0,0,1-2.87,2.21q-3-.42-3.13-3V141.6Z"/><path class="cls-9" d="M205.65,127.86c2.17.14,3.3,1.27,3.27,3.4q-.13,11.16-.32,22.33c0,1.89-.16,3.77-.28,5.66-.14,2.15-1.53,3.45-3.38,3.22.13-4.39.3-8.78.38-13.17C205.46,142.15,205.54,135,205.65,127.86Z"/><path class="cls-10" d="M205.65,127.86c-.11,7.14-.19,14.29-.33,21.44-.08,4.39-.25,8.78-.38,13.17-2.16-.48-2.95-1.42-2.92-3.62q.15-11.43.36-22.86c0-1.69.15-3.37.23-5.06S203.64,128.28,205.65,127.86Z"/><path class="cls-11" d="M207.72,42.44a16,16,0,0,1,14.91,21.14c-2.39,6.76-8.11,10.77-15.49,11,.09-2.18.19-4.35.29-6.53,1.67-.41,3.57-.45,5-1.3a9.62,9.62,0,0,0,2.34-14.6,8.74,8.74,0,0,0-7-3.09l0-6.49Z"/><path class="cls-12" d="M207.43,68c-.1,2.18-.2,4.35-.29,6.53l-.15,0h-.15c-1.14-.26-2.3-.5-3.43-.79-6.58-1.7-10.3-6.09-11.58-12.6a14.59,14.59,0,0,1,1.82-10.65,15.46,15.46,0,0,1,11.59-7.76c.83-.11,1.68-.15,2.52-.23,0,2.17,0,4.33,0,6.49a4.69,4.69,0,0,0-1.45-.22A10,10,0,0,0,197.84,59C198.05,63.54,202.38,68.44,207.43,68Z"/><path class="cls-13" d="M207.43,68c-5.05.43-9.38-4.47-9.59-9a10,10,0,0,1,8.45-10.22,4.69,4.69,0,0,1,1.45.22,8.74,8.74,0,0,1,7,3.09,9.62,9.62,0,0,1-2.34,14.6C211,67.56,209.1,67.6,207.43,68Z"/></svg>